<?xml version="1.0" standalone="yes"?>
<svg xmlns="http://www.w3.org/2000/svg" width="843" height="596">
<path style="fill:#ffffff; stroke:none;" d="M0 0L0 596L843 596L843 0L0 0z"/>
<path style="fill:#9ca6a8; stroke:none;" d="M324.667 196.333L325.333 196.667L324.667 196.333z"/>
<path style="fill:#5a6669; stroke:none;" d="M326 196L326 197L329 197L326 196z"/>
<path style="fill:#132830; stroke:none;" d="M307 353L329 353L329 319L348 319L348 353L370 353L370 244C370 231.816 373.64 212.06 364.468 202.34C353.655 190.883 313.871 192.073 308.939 209.001C304.518 224.176 307 242.358 307 258L307 353z"/>
<path style="fill:#5a6669; stroke:none;" d="M347 196L347 197L350 197L347 196z"/>
<path style="fill:#9ca6a8; stroke:none;" d="M350 196L350 197L353 197L350 196M319 197L320 198L319 197z"/>
<path style="fill:#5a6669; stroke:none;" d="M320.667 197.333L321.333 197.667L320.667 197.333M355 197L356 198L355 197z"/>
<path style="fill:#9ca6a8; stroke:none;" d="M356 197L357 198L356 197M415 197L415 198L423 198L415 197M183.333 198.667L183.667 199.333L183.333 198.667z"/>
<path style="fill:#f29028; stroke:none;" d="M184 353L206 353L206 291C206 282.25 203.94 270.534 206.318 262.109C208.785 253.367 221.366 261.321 226.397 257.883C229.943 255.459 228 243.862 228 240C222.815 240 212.754 241.932 208.318 238.972C204.366 236.335 204.37 219.813 208.318 217.179C213.229 213.902 224.539 219.541 227.782 214.552C230.044 211.07 228 202.181 228 198L197 198L184.757 199.028L183.731 209L184 237L184 353z"/>
<path style="fill:#9ca6a8; stroke:none;" d="M228 198L228 211L229 211L228 198z"/>
<path style="fill:#5a6669; stroke:none;" d="M317 198L318 199L317 198M358 198L359 199L358 198z"/>
<path style="fill:#9ca6a8; stroke:none;" d="M359 198L360 199L359 198M406 198L407 199L406 198z"/>
<path style="fill:#5a6669; stroke:none;" d="M407 198L407 199L410 199L407 198z"/>
<path style="fill:#132830; stroke:none;" d="M388 236L381 236L381 252L388 252L388 353L408 353L408 252L423 252L423 236L408 236C408 223.779 406.711 213.044 422 213L422 198C413.768 198 403.035 197.524 396.043 202.652C385.836 210.138 388 224.995 388 236z"/>
<path style="fill:#5a6669; stroke:none;" d="M422 198L422 213L423 213L422 198M315 199L316 200L315 199z"/>
<path style="fill:#9ca6a8; stroke:none;" d="M361 199L362 200L361 199M401.667 199.333L402.333 199.667L401.667 199.333z"/>
<path style="fill:#5a6669; stroke:none;" d="M403 199L404 200L403 199z"/>
<path style="fill:#9ca6a8; stroke:none;" d="M313 200L312 202L313 200z"/>
<path style="fill:#5a6669; stroke:none;" d="M314 200L315 201L314 200M362 200L363 201L362 200z"/>
<path style="fill:#9ca6a8; stroke:none;" d="M399 200L400 201L399 200z"/>
<path style="fill:#5a6669; stroke:none;" d="M313 201L314 202L313 201z"/>
<path style="fill:#9ca6a8; stroke:none;" d="M364 201L365 202L364 201M397 201L398 202L397 201z"/>
<path style="fill:#f29028; stroke:none;" d="M570 232C569.675 227.16 566.68 224.436 565.514 220C564.374 215.663 566.864 211.514 564.852 207.093C561.399 199.509 549.381 198.853 546.264 207.019C541.607 219.217 551.733 219.201 558.907 223.734C563.38 226.561 564.301 231.101 570 232z"/>
<path style="fill:#9ca6a8; stroke:none;" d="M311 202L312 203L311 202M395 202L396 203L395 202M183 203L183 207L184 207L183 203z"/>
<path style="fill:#5a6669; stroke:none;" d="M311 203L312 204L311 203M365 203L366 204L365 203z"/>
<path style="fill:#9ca6a8; stroke:none;" d="M394 203L395 204L394 203M562 203L563 204L562 203M310 204L311 205L310 204z"/>
<path style="fill:#5a6669; stroke:none;" d="M366 204L367 205L366 204M393 204L394 205L393 204z"/>
<path style="fill:#9ca6a8; stroke:none;" d="M367 205L368 206L367 205M392 205L393 206L392 205z"/>
<path style="fill:#ffffff; stroke:none;" d="M554.044 205.851C546.635 207.992 549.177 219.469 556.957 217.547C564.698 215.635 561.435 203.716 554.044 205.851z"/>
<path style="fill:#9ca6a8; stroke:none;" d="M309 206L310 207L309 206z"/>
<path style="fill:#5a6669; stroke:none;" d="M367 206L368 207L367 206z"/>
<path style="fill:#9ca6a8; stroke:none;" d="M391 206L392 207L391 206M564 206L565 207L564 206z"/>
<path style="fill:#5a6669; stroke:none;" d="M391 207L392 208L391 207z"/>
<path style="fill:#9ca6a8; stroke:none;" d="M183 208L183 353L184 353L184 252C184 239.532 187.807 219.456 183 208M308.333 208.667L308.667 209.333L308.333 208.667z"/>
<path style="fill:#5a6669; stroke:none;" d="M368.333 208.667L368.667 209.333L368.333 208.667z"/>
<path style="fill:#9ca6a8; stroke:none;" d="M390 208L391 209L390 208M545.333 208.667L545.667 209.333L545.333 208.667z"/>
<path style="fill:#5a6669; stroke:none;" d="M390 209L391 210L390 209M308 210L309 211L308 210z"/>
<path style="fill:#9ca6a8; stroke:none;" d="M389 210L390 211L389 210M369.333 211.667L369.667 212.333L369.333 211.667z"/>
<path style="fill:#5a6669; stroke:none;" d="M389 211L390 212L389 211z"/>
<path style="fill:#9ca6a8; stroke:none;" d="M307.333 213.667L307.667 214.333L307.333 213.667z"/>
<path style="fill:#5a6669; stroke:none;" d="M369 213L370 214L369 213z"/>
<path style="fill:#9ca6a8; stroke:none;" d="M388 213L389 214L388 213z"/>
<path style="fill:#5a6669; stroke:none;" d="M413 213L414 214L413 213z"/>
<path style="fill:#9ca6a8; stroke:none;" d="M414.667 213.333L415.333 213.667L414.667 213.333M228 214L226 216L226 217C228.251 216.527 229.118 216.14 228 214z"/>
<path style="fill:#5a6669; stroke:none;" d="M388.333 214.667L388.667 215.333L388.333 214.667M411 214L412 215L411 214z"/>
<path style="fill:#9ca6a8; stroke:none;" d="M412 214L413 215L412 214M561 214L562 215L561 214z"/>
<path style="fill:#5a6669; stroke:none;" d="M307 215L307 218L308 218L307 215M410 215L411 216L410 215z"/>
<path style="fill:#9ca6a8; stroke:none;" d="M545 215L546 216L545 215M208 216L208 217L224 217L208 216z"/>
<path style="fill:#5a6669; stroke:none;" d="M334 216L335 217L334 216z"/>
<path style="fill:#9ca6a8; stroke:none;" d="M335 216L335 217L341 217L335 216z"/>
<path style="fill:#5a6669; stroke:none;" d="M341.667 216.333L342.333 216.667L341.667 216.333z"/>
<path style="fill:#9ca6a8; stroke:none;" d="M370 216L370 222L371 222L370 216z"/>
<path style="fill:#5a6669; stroke:none;" d="M409 216L410 217L409 216M331 217L330 219L331 217z"/>
<path style="fill:#9ca6a8; stroke:none;" d="M332 217L333 218L332 217z"/>
<path style="fill:#ffffff; stroke:none;" d="M329 300L347 300L347 238C347 232.457 349.399 220.211 342.941 217.603C330.864 212.727 329.003 224.241 329 233L329 300z"/>
<path style="fill:#9ca6a8; stroke:none;" d="M344 217L346 219L344 217z"/>
<path style="fill:#5a6669; stroke:none;" d="M345 217L346 218L345 217z"/>
<path style="fill:#9ca6a8; stroke:none;" d="M409 217L410 218L409 217M558 217L559 218L558 217M387 218L387 235L380 235L380 236C389.454 235.888 390.223 225.681 387 218z"/>
<path style="fill:#5a6669; stroke:none;" d="M408.333 218.667L408.667 219.333L408.333 218.667z"/>
<path style="fill:#9ca6a8; stroke:none;" d="M346 219L347 220L346 219z"/>
<path style="fill:#5a6669; stroke:none;" d="M329.333 220.667L329.667 221.333L329.333 220.667z"/>
<path style="fill:#9ca6a8; stroke:none;" d="M408 220L409 221L408 220z"/>
<path style="fill:#5a6669; stroke:none;" d="M347 221L348 222L347 221z"/>
<path style="fill:#9ca6a8; stroke:none;" d="M565 221L566 222L565 221M306 222L306 353L307 353L307 262C307 250.58 310.408 232.504 306 222M329.333 222.667L329.667 223.333L329.333 222.667M347 222L347 300L348 300L348 246L347 222z"/>
<path style="fill:#5a6669; stroke:none;" d="M370 222L370 353L371 353L371 262C371 250.58 374.408 232.504 370 222z"/>
<path style="fill:#9ca6a8; stroke:none;" d="M554 222L555 223L554 222M554.333 227.667L554.667 228.333L554.333 227.667z"/>
<path style="fill:#f29028; stroke:none;" d="M552 228C545.689 235.032 539.959 233.314 538 244C528.747 236.377 524.154 257.134 522 263L518 262L516 268L512 268C509.521 274.022 508.134 291.2 502 291L500.783 323L492 353L493 353L505.313 323.09L514 308C521.379 305.139 527.14 297.92 528 290L523 292L523 291C531.099 286.707 535.196 276.356 538 268L537 267L525 271L525 270C535.315 266.217 545.412 255.303 546 244L542 245C547.275 239.555 554.51 236.801 554 228L552 228z"/>
<path style="fill:#9ca6a8; stroke:none;" d="M549 229L546 231L546 232L549 229z"/>
<path style="fill:#ffffff; stroke:none;" d="M549 230L550 231L549 230M548 231L549 232L548 231z"/>
<path style="fill:#9ca6a8; stroke:none;" d="M544 232L545 233L544 232z"/>
<path style="fill:#ffffff; stroke:none;" d="M547 232L548 233L547 232z"/>
<path style="fill:#9ca6a8; stroke:none;" d="M266.667 233.333L267.333 233.667L266.667 233.333z"/>
<path style="fill:#ffffff; stroke:none;" d="M546 233L547 234L546 233z"/>
<path style="fill:#9ca6a8; stroke:none;" d="M572 233L572 234L591 234L572 233M639 233L639 234L658 234L639 233z"/>
<path style="fill:#f29028; stroke:none;" d="M237 272C241.281 272.184 252.956 275.643 255.397 270.682C258.012 265.368 253.277 257.229 258.43 252.847C262.526 249.363 269.437 251.054 271.397 256.044C274.449 263.816 272 276.676 272 285C268.037 283.829 264.118 284 260 284C255.569 284 250.407 283.313 246.171 284.85C232.751 289.718 237 311.955 237 323C237 331.219 234.55 345.159 241.394 351.351C250.116 359.242 267.53 355.272 278 355.015C281.777 354.922 288.402 356.083 290.972 352.486C294.752 347.196 292 332.379 292 326L292 269C292 260.276 293.425 248.95 288.86 241.043C282.697 230.367 248.157 229.975 240.653 239.213C234.347 246.976 237 262.67 237 272z"/>
<path style="fill:#9ca6a8; stroke:none;" d="M466 234L466 235L476 235L466 234M565.667 234.333L566.333 234.667L565.667 234.333z"/>
<path style="fill:#5a6669; stroke:none;" d="M567 234L568 235L567 234z"/>
<path style="fill:#132830; stroke:none;" d="M609 298L591 298C591 306.688 594.847 327.963 588.486 334.566C584.662 338.536 571.576 340.114 566 342C568.37 336.224 572.033 330.259 572.815 324C575.438 302.992 567.945 278.429 573.863 258.043C575.8 251.37 586.156 249.838 589.682 256.133C592.968 262 591 272.459 591 279L609 279C609 268.106 612.128 249.396 605.297 240.105C598.026 230.215 563.723 230.117 557.417 241.043C552.762 249.11 554 261.04 554 270C554 289.995 553.766 310.006 554.004 330C554.076 336.065 554.178 345.03 558.419 349.786C566.047 358.343 596.97 358.326 604.581 349.786C614.001 339.217 609 311.23 609 298z"/>
<path style="fill:#5a6669; stroke:none;" d="M594.667 234.333L595.333 234.667L594.667 234.333z"/>
<path style="fill:#9ca6a8; stroke:none;" d="M596.667 234.333L597.333 234.667L596.667 234.333M633.667 234.333L634.333 234.667L633.667 234.333z"/>
<path style="fill:#5a6669; stroke:none;" d="M635 234L636 235L635 234z"/>
<path style="fill:#132830; stroke:none;" d="M623 272L641 272C641 266.928 639.451 258.707 642.179 254.228C645.298 249.107 654.032 250.081 656.682 255.059C660.686 262.58 658 276.636 658 285C649.314 283.902 635.42 281.249 628.109 287.419C617.874 296.057 622.98 323.836 623 336C623.009 341.336 623.171 346.753 627.225 350.772C637.366 360.828 664.14 354.106 677 354L677 277C677 266.472 679.514 251.681 674.544 242.005C668.692 230.611 634.498 229.756 626.51 239.214C620.023 246.895 623 262.655 623 272z"/>
<path style="fill:#5a6669; stroke:none;" d="M662.667 234.333L663.333 234.667L662.667 234.333z"/>
<path style="fill:#9ca6a8; stroke:none;" d="M664.667 234.333L665.333 234.667L664.667 234.333M245 235L246 236L245 235M282 235L283 236L282 235z"/>
<path style="fill:#5a6669; stroke:none;" d="M387 235L388 236L387 235z"/>
<path style="fill:#9ca6a8; stroke:none;" d="M408 235L408 236L423 236L408 235M434 235L434 236L453 236L434 235M462 235L463 236L462 235z"/>
<path style="fill:#5a6669; stroke:none;" d="M463 235L464 236L463 235z"/>
<path style="fill:#132830; stroke:none;" d="M452 243L452 236L434 236L434 353L454 353L454 290C454 280.801 451.987 268.885 454.434 260.001C456.23 253.48 467.229 249.187 470.397 257.058C473.686 265.232 471 279.208 471 288L489 288C489 268.629 495.456 224.458 462 236.109C457.972 237.511 455.19 240.333 452 243z"/>
<path style="fill:#5a6669; stroke:none;" d="M478.667 235.333L479.333 235.667L478.667 235.333z"/>
<path style="fill:#9ca6a8; stroke:none;" d="M539 235L540 236L539 235z"/>
<path style="fill:#ffffff; stroke:none;" d="M544 235L545 236L544 235z"/>
<path style="fill:#9ca6a8; stroke:none;" d="M563 235L564 236L563 235z"/>
<path style="fill:#5a6669; stroke:none;" d="M599 235L600 236L599 235z"/>
<path style="fill:#9ca6a8; stroke:none;" d="M600 235L601 236L600 235M630 235L631 236L630 235z"/>
<path style="fill:#5a6669; stroke:none;" d="M631 235L632 236L631 235M667 235L668 236L667 235z"/>
<path style="fill:#9ca6a8; stroke:none;" d="M668 235L669 236L668 235M243 236L244 237L243 236M284 236L285 237L284 236z"/>
<path style="fill:#5a6669; stroke:none;" d="M380 236L380 252L381 252L380 236M452 236L454 243L452 236M460 236L461 237L460 236M481 236L482 237L481 236z"/>
<path style="fill:#9ca6a8; stroke:none;" d="M482 236L483 237L482 236M538.333 236.667L538.667 237.333L538.333 236.667z"/>
<path style="fill:#5a6669; stroke:none;" d="M561 236L562 237L561 236M601 236L602 237L601 236z"/>
<path style="fill:#9ca6a8; stroke:none;" d="M602 236L603 237L602 236z"/>
<path style="fill:#5a6669; stroke:none;" d="M629 236L630 237L629 236z"/>
<path style="fill:#9ca6a8; stroke:none;" d="M670 236L671 237L670 236z"/>
<path style="fill:#5a6669; stroke:none;" d="M458 237L459 238L458 237M483 237L484 238L483 237z"/>
<path style="fill:#9ca6a8; stroke:none;" d="M559 237L560 238L559 237M603 237L604 238L603 237M627 237L628 238L627 237z"/>
<path style="fill:#5a6669; stroke:none;" d="M671 237L672 238L671 237z"/>
<path style="fill:#9ca6a8; stroke:none;" d="M456 238L457 239L456 238M484 238L485 239L484 238M558 238L559 239L558 238z"/>
<path style="fill:#5a6669; stroke:none;" d="M604 238L605 239L604 238z"/>
<path style="fill:#9ca6a8; stroke:none;" d="M626 238L627 239L626 238M672 238L673 239L672 238M207 239L208 240L207 239M225.667 239.333L226.333 239.667L225.667 239.333M455 239L456 240L455 239z"/>
<path style="fill:#5a6669; stroke:none;" d="M485 239L486 240L485 239z"/>
<path style="fill:#9ca6a8; stroke:none;" d="M605 239L606 240L605 239M625 239L626 240L625 239M673 239L674 240L673 239M454 240L455 241L454 240M486 240L487 241L486 240M547 240L548 241L547 240z"/>
<path style="fill:#5a6669; stroke:none;" d="M557 240L558 241L557 240z"/>
<path style="fill:#9ca6a8; stroke:none;" d="M674 240L675 241L674 240M453 241L454 242L453 241z"/>
<path style="fill:#5a6669; stroke:none;" d="M486 241L487 242L486 241z"/>
<path style="fill:#9ca6a8; stroke:none;" d="M536 241L537 242L536 241M556 241L557 242L556 241z"/>
<path style="fill:#5a6669; stroke:none;" d="M606 241L607 242L606 241z"/>
<path style="fill:#9ca6a8; stroke:none;" d="M624 241L625 242L624 241z"/>
<path style="fill:#5a6669; stroke:none;" d="M674 241L675 242L674 241z"/>
<path style="fill:#9ca6a8; stroke:none;" d="M238 242L239 243L238 242M487 242L488 243L487 242z"/>
<path style="fill:#5a6669; stroke:none;" d="M556 242L557 243L556 242M624 242L625 243L624 242z"/>
<path style="fill:#9ca6a8; stroke:none;" d="M675 242L676 243L675 242z"/>
<path style="fill:#5a6669; stroke:none;" d="M487 243L488 244L487 243z"/>
<path style="fill:#9ca6a8; stroke:none;" d="M546 243L546 247L547 247L548 243L546 243M607 243L608 244L607 243z"/>
<path style="fill:#5a6669; stroke:none;" d="M675 243L676 244L675 243z"/>
<path style="fill:#9ca6a8; stroke:none;" d="M555 244L556 245L555 244z"/>
<path style="fill:#5a6669; stroke:none;" d="M607 244L608 245L607 244z"/>
<path style="fill:#9ca6a8; stroke:none;" d="M623 244L624 245L623 244M290 245L291 246L290 245M488.333 245.667L488.667 246.333L488.333 245.667z"/>
<path style="fill:#5a6669; stroke:none;" d="M555 245L556 246L555 245M623 245L624 246L623 245z"/>
<path style="fill:#9ca6a8; stroke:none;" d="M528 246L529 247L528 246M676.333 246.667L676.667 247.333L676.333 246.667z"/>
<path style="fill:#5a6669; stroke:none;" d="M488.333 247.667L488.667 248.333L488.333 247.667z"/>
<path style="fill:#9ca6a8; stroke:none;" d="M554 247L554 250L555 250L554 247M608.333 247.667L608.667 248.333L608.333 247.667M527 248L528 249L527 248z"/>
<path style="fill:#5a6669; stroke:none;" d="M676.333 248.667L676.667 249.333L676.333 248.667M608 249L608 253L609 253L608 249z"/>
<path style="fill:#9ca6a8; stroke:none;" d="M263 250L264 251L263 250M526 250L527 251L526 250z"/>
<path style="fill:#5a6669; stroke:none;" d="M554 250L554 254L555 254L554 250z"/>
<path style="fill:#9ca6a8; stroke:none;" d="M622 250L622 255L623 255L622 250z"/>
<path style="fill:#5a6669; stroke:none;" d="M648.667 250.333L649.333 250.667L648.667 250.333M644 251L645 252L644 251z"/>
<path style="fill:#9ca6a8; stroke:none;" d="M645 251L646 252L645 251M653 251L654 252L653 251z"/>
<path style="fill:#5a6669; stroke:none;" d="M654 251L655 252L654 251z"/>
<path style="fill:#9ca6a8; stroke:none;" d="M387 252L387 354L408 354L408 353L388 353L388 283L387 252z"/>
<path style="fill:#5a6669; stroke:none;" d="M463.667 252.333L464.333 252.667L463.667 252.333z"/>
<path style="fill:#9ca6a8; stroke:none;" d="M489 252L489 288L490 288C490 277.613 493.011 261.56 489 252z"/>
<path style="fill:#5a6669; stroke:none;" d="M578 252L578 253L586 253L578 252M642 252L643 253L642 252z"/>
<path style="fill:#9ca6a8; stroke:none;" d="M655 252L656 253L655 252z"/>
<path style="fill:#5a6669; stroke:none;" d="M458 253L459 254L458 253z"/>
<path style="fill:#9ca6a8; stroke:none;" d="M459 253L460 254L459 253M467 253L468 254L467 253z"/>
<path style="fill:#5a6669; stroke:none;" d="M468 253L469 254L468 253z"/>
<path style="fill:#9ca6a8; stroke:none;" d="M576 253L577 254L576 253M587 253L588 254L587 253z"/>
<path style="fill:#5a6669; stroke:none;" d="M588 253L589 254L588 253M656 253L657 254L656 253z"/>
<path style="fill:#9ca6a8; stroke:none;" d="M677 253L677 354L678 354L678 284L677 253M237 254L238 255L237 254M271 254L272 255L271 254M457 254L458 255L457 254z"/>
<path style="fill:#5a6669; stroke:none;" d="M469 254L470 255L469 254M574 254L575 255L574 254M589 254L590 255L589 254M641 254L642 255L641 254z"/>
<path style="fill:#9ca6a8; stroke:none;" d="M656 254L657 255L656 254M456 255L457 256L456 255z"/>
<path style="fill:#5a6669; stroke:none;" d="M470 255L471 256L470 255z"/>
<path style="fill:#9ca6a8; stroke:none;" d="M574 255L575 256L574 255M589 255L590 256L589 255z"/>
<path style="fill:#5a6669; stroke:none;" d="M622 255L623.028 271.397L641 273L641 272L623 272L622 255z"/>
<path style="fill:#9ca6a8; stroke:none;" d="M641 255L642 256L641 255M455 256L456 257L455 256M470.333 256.667L470.667 257.333L470.333 256.667z"/>
<path style="fill:#5a6669; stroke:none;" d="M657.333 256.667L657.667 257.333L657.333 256.667M590.333 257.667L590.667 258.333L590.333 257.667z"/>
<path style="fill:#9ca6a8; stroke:none;" d="M227 258L228 259L227 258M454 258L454 353L455 353L455 287L454 258M523.333 258.667L523.667 259.333L523.333 258.667M657 258L656 285L657 285C659.025 278.15 659.785 264.638 657 258z"/>
<path style="fill:#5a6669; stroke:none;" d="M573 259L573 325L574 325L574 280L573 259z"/>
<path style="fill:#9ca6a8; stroke:none;" d="M590 259L590 280L608 280L608 279L591 279L590 259M518.333 260.667L518.667 261.333L518.333 260.667M517 262L518 263L517 262M535 263L536 264L535 263M516 264L517 265L516 264M533 265L534 266L533 265M537 266L537 268L539 266L537 266M515 267L516 268L515 267M528 268L529 269L528 268M511 270L512 271L511 270M510 271L511 272L510 271M536 271L537 272L536 271M237 272L237 273L243 273L237 272M622 272L623 273L622 272M507 278L508 279L507 278z"/>
<path style="fill:#5a6669; stroke:none;" d="M608 279L609 280L608 279z"/>
<path style="fill:#9ca6a8; stroke:none;" d="M256 283L256 284L265 284L256 283M636 283L636 284L652 284L636 283M632 284L633 285L632 284z"/>
<path style="fill:#5a6669; stroke:none;" d="M633 284L634 285L633 284M654.667 284.333L655.333 284.667L654.667 284.333M657 284L658 285L657 284z"/>
<path style="fill:#9ca6a8; stroke:none;" d="M529 285L530 286L529 285M629 285L630 286L629 285z"/>
<path style="fill:#5a6669; stroke:none;" d="M630 285L631 286L630 285z"/>
<path style="fill:#9ca6a8; stroke:none;" d="M243 286L244 287L243 286M628 286L629 287L628 286z"/>
<path style="fill:#5a6669; stroke:none;" d="M627 287L628 288L627 287M626 288L627 289L626 288z"/>
<path style="fill:#9ca6a8; stroke:none;" d="M502 289L502 291L504 291L502 289M625 289L626 290L625 289M528 290L529 291L528 290M505 291L506 292L505 291M624 291L625 292L624 291M238 292L239 293L238 292M501 292L502 293L501 292z"/>
<path style="fill:#ffffff; stroke:none;" d="M521 292L522 293L521 292z"/>
<path style="fill:#9ca6a8; stroke:none;" d="M623 293L624 294L623 293z"/>
<path style="fill:#5a6669; stroke:none;" d="M623.333 294.667L623.667 295.333L623.333 294.667z"/>
<path style="fill:#9ca6a8; stroke:none;" d="M500.333 297.667L500.667 298.333L500.333 297.667M591 297L591 298L609 298L591 297M590 298L590 330L591 330L590 298M622 298L622 301L623 301L622 298z"/>
<path style="fill:#ffffff; stroke:none;" d="M259.148 299.742C255.003 301.618 256 307.285 256 311C255.999 319.257 252.665 346.925 269.682 338.258C273.355 336.387 272 329.365 272 326C272 316.844 276.188 292.034 259.148 299.742z"/>
<path style="fill:#5a6669; stroke:none;" d="M643 299L641 302L643 299z"/>
<path style="fill:#9ca6a8; stroke:none;" d="M644.667 299.333L645.333 299.667L644.667 299.333z"/>
<path style="fill:#ffffff; stroke:none;" d="M657 338L657 321L657 310C657 302.578 650.742 292.455 642.742 301.514C638.941 305.818 638.822 332.066 642.858 336.258C645.844 339.358 653.09 338 657 338z"/>
<path style="fill:#9ca6a8; stroke:none;" d="M655 299L656 300L655 299z"/>
<path style="fill:#5a6669; stroke:none;" d="M656 299L657 300L656 299z"/>
<path style="fill:#9ca6a8; stroke:none;" d="M256 300L257 301L256 300z"/>
<path style="fill:#5a6669; stroke:none;" d="M329 300L329 301L348 301L329 300z"/>
<path style="fill:#9ca6a8; stroke:none;" d="M657.333 300.667L657.667 301.333L657.333 300.667z"/>
<path style="fill:#5a6669; stroke:none;" d="M622 301L622 336L623 336L622 301z"/>
<path style="fill:#9ca6a8; stroke:none;" d="M641 302L642 303L641 302z"/>
<path style="fill:#5a6669; stroke:none;" d="M657 302L658 303L657 302z"/>
<path style="fill:#9ca6a8; stroke:none;" d="M657 303L657 338L646 338L646 339L656.397 337.972L658 329L657 303z"/>
<path style="fill:#ffffff; stroke:none;" d="M501 305L502 306L501 305z"/>
<path style="fill:#9ca6a8; stroke:none;" d="M515.667 309.333L516.333 309.667L515.667 309.333M514.333 310.667L514.667 311.333L514.333 310.667M347 319L347 353L348 353L347 319M501 321L502 322L501 321M573 325L574 326L573 325z"/>
<path style="fill:#5a6669; stroke:none;" d="M572 326L573 327L572 326z"/>
<path style="fill:#9ca6a8; stroke:none;" d="M572 327L573 328L572 327z"/>
<path style="fill:#5a6669; stroke:none;" d="M571 329L572 330L571 329M590.333 330.667L590.667 331.333L590.333 330.667M570 331L571 332L570 331z"/>
<path style="fill:#9ca6a8; stroke:none;" d="M500 332L501 333L500 332M570 332L571 333L570 332z"/>
<path style="fill:#5a6669; stroke:none;" d="M569 333L570 334L569 333z"/>
<path style="fill:#9ca6a8; stroke:none;" d="M589 333L590 334L589 333M569 334L570 335L569 334z"/>
<path style="fill:#5a6669; stroke:none;" d="M589 334L590 335L589 334z"/>
<path style="fill:#9ca6a8; stroke:none;" d="M641 334L642 335L641 334z"/>
<path style="fill:#5a6669; stroke:none;" d="M588 335L589 336L588 335M641 335L642 336L641 335z"/>
<path style="fill:#9ca6a8; stroke:none;" d="M256 336L257 337L256 336z"/>
<path style="fill:#5a6669; stroke:none;" d="M554 336L554 339L555 339L554 336M568 336L569 337L568 336z"/>
<path style="fill:#9ca6a8; stroke:none;" d="M580 336L580 337L586 337L580 336z"/>
<path style="fill:#5a6669; stroke:none;" d="M586 336L587 337L586 336M608 336L608 340L609 340L608 336z"/>
<path style="fill:#9ca6a8; stroke:none;" d="M622 336L622 341L623 341L622 336M577 337L578 338L577 337z"/>
<path style="fill:#5a6669; stroke:none;" d="M642 337L643 338L642 337z"/>
<path style="fill:#9ca6a8; stroke:none;" d="M643 337L644 338L643 337z"/>
<path style="fill:#5a6669; stroke:none;" d="M567 338L568 339L567 338z"/>
<path style="fill:#9ca6a8; stroke:none;" d="M574 338L575 339L574 338z"/>
<path style="fill:#5a6669; stroke:none;" d="M575 338L576 339L575 338M644.667 338.333L645.333 338.667L644.667 338.333M657 338L658 339L657 338z"/>
<path style="fill:#9ca6a8; stroke:none;" d="M554 339L554 342L555 342L554 339M567 339L568 340L567 339z"/>
<path style="fill:#5a6669; stroke:none;" d="M572 339L573 340L572 339M566.333 340.667L566.667 341.333L566.333 340.667z"/>
<path style="fill:#9ca6a8; stroke:none;" d="M569 340L570 341L569 340z"/>
<path style="fill:#5a6669; stroke:none;" d="M570 340L571 341L570 340z"/>
<path style="fill:#9ca6a8; stroke:none;" d="M608.333 340.667L608.667 341.333L608.333 340.667M496 341L497 342L496 341M567 341L568 342L567 341M493 344L494 345L493 344M495 344L496 345L495 344z"/>
<path style="fill:#5a6669; stroke:none;" d="M555 344L556 345L555 344M607 344L608 345L607 344M623 344L624 345L623 344z"/>
<path style="fill:#9ca6a8; stroke:none;" d="M494.333 345.667L494.667 346.333L494.333 345.667M555 345L556 346L555 345M607 345L608 346L607 345M623 345L624 346L623 345M492 346L493 347L492 346M556 347L557 348L556 347z"/>
<path style="fill:#5a6669; stroke:none;" d="M606 347L607 348L606 347M624 347L625 348L624 347z"/>
<path style="fill:#9ca6a8; stroke:none;" d="M624 348L625 349L624 348M557 349L558 350L557 349M605 349L606 350L605 349z"/>
<path style="fill:#5a6669; stroke:none;" d="M625 349L626 350L625 349z"/>
<path style="fill:#9ca6a8; stroke:none;" d="M558 350L559 351L558 350z"/>
<path style="fill:#5a6669; stroke:none;" d="M604 350L605 351L604 350M626 350L627 351L626 350z"/>
<path style="fill:#9ca6a8; stroke:none;" d="M482 352L482 353L492 351L482 352M493 353L496 353L495 351L493 353M559 351L560 352L559 351z"/>
<path style="fill:#5a6669; stroke:none;" d="M603 351L604 352L603 351M627 351L628 352L627 351M561 352L562 353L561 352M601 352L602 353L601 352z"/>
<path style="fill:#9ca6a8; stroke:none;" d="M602 352L603 353L602 352z"/>
<path style="fill:#5a6669; stroke:none;" d="M628 352L629 353L628 352z"/>
<path style="fill:#9ca6a8; stroke:none;" d="M184 353L184 354L187 354L184 353M203.667 353.333L204.333 353.667L203.667 353.333M291 353L292 354L291 353M307 353L307 354L329 354L307 353M348 353L348 354L371 354L348 353M434 353L434 354L454 354L434 353M563 353L564 354L563 353z"/>
<path style="fill:#5a6669; stroke:none;" d="M599 353L600 354L599 353z"/>
<path style="fill:#9ca6a8; stroke:none;" d="M600 353L601 354L600 353z"/>
<path style="fill:#5a6669; stroke:none;" d="M630 353L631 354L630 353z"/>
<path style="fill:#9ca6a8; stroke:none;" d="M566 354L567 355L566 354z"/>
<path style="fill:#5a6669; stroke:none;" d="M567.667 354.333L568.333 354.667L567.667 354.333M595 354L596 355L595 354z"/>
<path style="fill:#9ca6a8; stroke:none;" d="M596.667 354.333L597.333 354.667L596.667 354.333M632.667 354.333L633.333 354.667L632.667 354.333z"/>
<path style="fill:#5a6669; stroke:none;" d="M634 354L635 355L634 354M669 354L669 355L672 355L669 354z"/>
<path style="fill:#9ca6a8; stroke:none;" d="M672 354L672 355L675 355L672 354M256 355L257 356L256 355M272.667 355.333L273.333 355.667L272.667 355.333M572 355L572 356L592 356L572 355M639 355L639 356L665 356L639 355z"/>
<path style="fill:#132830; stroke:none;" d="M180 365L180 366L668 366C656.782 361.293 637.206 365 625 365L526 365L180 365z"/>
<path style="fill:#5a6669; stroke:none;" d="M668 365L667 367L668 365z"/>
<path style="fill:#9ca6a8; stroke:none;" d="M180 366L180 367L667 367C655.782 362.293 636.206 366 624 366L525 366L180 366M668 366L669 367L668 366M556 374L556 375L561 375L561 384C563.175 378.814 561.866 374.457 556 374z"/>
<path style="fill:#132830; stroke:none;" d="M556 375L556 407L561 407C561 402.388 558.898 387.467 566.971 388.315C574.128 389.066 572 402.221 572 407L577 407C577 396.361 576.936 375.808 561 387L561 375L556 375M261 376L261 407L266 407L266 396L286 407L279 394C286.403 391.803 287.742 382.268 280.945 378.09C275.381 374.669 267.24 376 261 376z"/>
<path style="fill:#5a6669; stroke:none;" d="M277 376L278 377L277 376z"/>
<path style="fill:#9ca6a8; stroke:none;" d="M278.667 376.333L279.333 376.667L278.667 376.333z"/>
<path style="fill:#5a6669; stroke:none;" d="M280 377L281 378L280 377z"/>
<path style="fill:#9ca6a8; stroke:none;" d="M281 377L282 378L281 377z"/>
<path style="fill:#5a6669; stroke:none;" d="M282 378L283 379L282 378M283 379L284 380L283 379z"/>
<path style="fill:#9ca6a8; stroke:none;" d="M284 380L285 381L284 380M266 381L266 391L267 391L266 381z"/>
<path style="fill:#ffffff; stroke:none;" d="M267 381L267 391C282.189 390.998 282.189 381.002 267 381z"/>
<path style="fill:#9ca6a8; stroke:none;" d="M277 381L279 383L277 381z"/>
<path style="fill:#5a6669; stroke:none;" d="M278 381L279 382L278 381M279 382L280 383L279 382z"/>
<path style="fill:#9ca6a8; stroke:none;" d="M285 382L286 383L285 382z"/>
<path style="fill:#5a6669; stroke:none;" d="M285 383L286 384L285 383z"/>
<path style="fill:#9ca6a8; stroke:none;" d="M314 383L315 384L314 383z"/>
<path style="fill:#5a6669; stroke:none;" d="M315.667 383.333L316.333 383.667L315.667 383.333z"/>
<path style="fill:#132830; stroke:none;" d="M327 404L327 402L326 401C319.692 402.665 315.519 403.413 312 397L329 397C328.887 394.575 328.756 392.264 327.721 390.014C317.535 367.87 293.502 406.329 319 406.398C321.94 406.406 324.44 405.283 327 404z"/>
<path style="fill:#5a6669; stroke:none;" d="M320 383L321 384L320 383z"/>
<path style="fill:#9ca6a8; stroke:none;" d="M321 383L322 384L321 383M356 383L357 384L356 383z"/>
<path style="fill:#5a6669; stroke:none;" d="M357 383L358 384L357 383z"/>
<path style="fill:#132830; stroke:none;" d="M353 401L352 402L352 404C356.953 406.485 371.11 408.237 367.381 398.054C366.299 395.1 349.891 386.363 362.959 387.594L367 388C364.804 381.69 353.902 381.73 352.762 389.015C352.154 392.896 370.379 404.832 357.044 402.119C355.705 401.846 354.32 401.348 353 401z"/>
<path style="fill:#5a6669; stroke:none;" d="M362 383L363 384L362 383z"/>
<path style="fill:#9ca6a8; stroke:none;" d="M363 383L364 384L363 383M398 383L399 384L398 383z"/>
<path style="fill:#5a6669; stroke:none;" d="M399.667 383.333L400.333 383.667L399.667 383.333z"/>
<path style="fill:#132830; stroke:none;" d="M411 404L411 402L410 401C403.692 402.665 399.519 403.413 396 397L413 397C412.888 394.586 412.752 392.271 411.772 390.014C401.833 367.132 377.278 407.033 403 406.514C405.907 406.455 408.468 405.271 411 404z"/>
<path style="fill:#5a6669; stroke:none;" d="M404 383L405 384L404 383z"/>
<path style="fill:#9ca6a8; stroke:none;" d="M405 383L406 384L405 383M440 383L441 384L440 383z"/>
<path style="fill:#5a6669; stroke:none;" d="M441.667 383.333L442.333 383.667L441.667 383.333z"/>
<path style="fill:#132830; stroke:none;" d="M437 385L438 389C444.192 387.278 448.635 387.214 451 394C448.034 393.627 444.976 392.855 442.004 393.573C435.372 395.173 432.591 403.038 440.019 405.976C443.924 407.52 447.494 405.636 451 404C451.654 407.054 453.007 406.936 456 407C456 392.275 455.135 379.904 437 385z"/>
<path style="fill:#5a6669; stroke:none;" d="M448 383L449 384L448 383z"/>
<path style="fill:#9ca6a8; stroke:none;" d="M449.667 383.333L450.333 383.667L449.667 383.333z"/>
<path style="fill:#132830; stroke:none;" d="M479 383L479 407L484 407L485.318 393.055L492 383L484 388L484 383L479 383z"/>
<path style="fill:#9ca6a8; stroke:none;" d="M484 383L484 388L485 388L484 383M489 383L490 384L489 383z"/>
<path style="fill:#5a6669; stroke:none;" d="M490 383L491 384L490 383z"/>
<path style="fill:#9ca6a8; stroke:none;" d="M492 383L492 389L493 389L492 383M521 383L522 384L521 383z"/>
<path style="fill:#5a6669; stroke:none;" d="M522 383L523 384L522 383z"/>
<path style="fill:#132830; stroke:none;" d="M534 403L534 402L532 400L531 400C515.468 409.374 515.992 380.92 530 390L531 390L533 386C507.555 372.665 510.134 419.245 534 403z"/>
<path style="fill:#5a6669; stroke:none;" d="M527 383L528 384L527 383z"/>
<path style="fill:#9ca6a8; stroke:none;" d="M528.667 383.333L529.333 383.667L528.667 383.333M565 383L566 384L565 383z"/>
<path style="fill:#5a6669; stroke:none;" d="M566 383L567 384L566 383M570 383L571 384L570 383z"/>
<path style="fill:#9ca6a8; stroke:none;" d="M571 383L572 384L571 383z"/>
<path style="fill:#5a6669; stroke:none;" d="M280 384L281 385L280 384z"/>
<path style="fill:#9ca6a8; stroke:none;" d="M312 384L313 385L312 384z"/>
<path style="fill:#5a6669; stroke:none;" d="M313 384L314 385L313 384M323 384L324 385L323 384z"/>
<path style="fill:#9ca6a8; stroke:none;" d="M354 384L355 385L354 384z"/>
<path style="fill:#5a6669; stroke:none;" d="M365 384L366 385L365 384z"/>
<path style="fill:#9ca6a8; stroke:none;" d="M366 384L367 385L366 384M396 384L397 385L396 384M407 384L408 385L407 384M437 384L438 385L437 384z"/>
<path style="fill:#5a6669; stroke:none;" d="M438 384L439 385L438 384M451 384L452 385L451 384z"/>
<path style="fill:#9ca6a8; stroke:none;" d="M452 384L453 385L452 384M487 384L488 385L487 384M518 384L519 385L518 384z"/>
<path style="fill:#5a6669; stroke:none;" d="M519 384L520 385L519 384M530 384L531 385L530 384z"/>
<path style="fill:#9ca6a8; stroke:none;" d="M531 384L532 385L531 384M563 384L564 385L563 384z"/>
<path style="fill:#5a6669; stroke:none;" d="M564 384L565 385L564 384z"/>
<path style="fill:#9ca6a8; stroke:none;" d="M573 384L574 385L573 384M280.333 385.667L280.667 386.333L280.333 385.667z"/>
<path style="fill:#5a6669; stroke:none;" d="M311 385L312 386L311 385z"/>
<path style="fill:#9ca6a8; stroke:none;" d="M325 385L327 387L325 385M353 385L354 386L353 385z"/>
<path style="fill:#5a6669; stroke:none;" d="M367.333 385.667L367.667 386.333L367.333 385.667M395 385L396 386L395 385z"/>
<path style="fill:#9ca6a8; stroke:none;" d="M453 385L454 386L453 385z"/>
<path style="fill:#5a6669; stroke:none;" d="M486 385L487 386L486 385z"/>
<path style="fill:#9ca6a8; stroke:none;" d="M517 385L518 386L517 385z"/>
<path style="fill:#5a6669; stroke:none;" d="M532 385L533 386L532 385z"/>
<path style="fill:#9ca6a8; stroke:none;" d="M561.667 385.333L562.333 385.667L561.667 385.333z"/>
<path style="fill:#5a6669; stroke:none;" d="M574 385L575 386L574 385z"/>
<path style="fill:#9ca6a8; stroke:none;" d="M310 386L311 387L310 386z"/>
<path style="fill:#5a6669; stroke:none;" d="M325 386L326 387L325 386M394 386L395 387L394 386M437 386L438 387L437 386M516 386L517 387L516 386M533.333 386.667L533.667 387.333L533.333 386.667M561 386L562 387L561 386z"/>
<path style="fill:#9ca6a8; stroke:none;" d="M575 386L576 387L575 386z"/>
<path style="fill:#5a6669; stroke:none;" d="M280 387L281 388L280 387M285.333 387.667L285.667 388.333L285.333 387.667z"/>
<path style="fill:#9ca6a8; stroke:none;" d="M309 387L310 388L309 387z"/>
<path style="fill:#5a6669; stroke:none;" d="M316 387L317 388L316 387z"/>
<path style="fill:#9ca6a8; stroke:none;" d="M317 387L317 388L320 388L317 387z"/>
<path style="fill:#5a6669; stroke:none;" d="M320 387L321 388L320 387M326 387L327 388L326 387z"/>
<path style="fill:#9ca6a8; stroke:none;" d="M352 387L353 388L352 387z"/>
<path style="fill:#5a6669; stroke:none;" d="M357 387L358 388L357 387z"/>
<path style="fill:#9ca6a8; stroke:none;" d="M358 387L358 388L362 388L358 387z"/>
<path style="fill:#5a6669; stroke:none;" d="M362 387L363 388L362 387z"/>
<path style="fill:#9ca6a8; stroke:none;" d="M367 387L368 388L367 387M393 387L394 388L393 387z"/>
<path style="fill:#5a6669; stroke:none;" d="M400 387L401 388L400 387z"/>
<path style="fill:#9ca6a8; stroke:none;" d="M401 387L401 388L404 388L401 387z"/>
<path style="fill:#5a6669; stroke:none;" d="M404 387L405 388L404 387M410 387L411 388L410 387z"/>
<path style="fill:#9ca6a8; stroke:none;" d="M437 387L438 388L437 387z"/>
<path style="fill:#5a6669; stroke:none;" d="M443 387L443 388L447 388L443 387M454 387L455 388L454 387z"/>
<path style="fill:#9ca6a8; stroke:none;" d="M515 387L516 388L515 387z"/>
<path style="fill:#5a6669; stroke:none;" d="M522.667 387.333L523.333 387.667L522.667 387.333z"/>
<path style="fill:#9ca6a8; stroke:none;" d="M524.667 387.333L525.333 387.667L524.667 387.333z"/>
<path style="fill:#5a6669; stroke:none;" d="M526 387L527 388L526 387M566.667 387.333L567.333 387.667L566.667 387.333M314 388L313 390L314 388z"/>
<path style="fill:#ffffff; stroke:none;" d="M313 394L324 394C321.628 387.248 314.596 386.349 313 394z"/>
<path style="fill:#9ca6a8; stroke:none;" d="M321 388L322 389L321 388M327 388L328 389L327 388z"/>
<path style="fill:#5a6669; stroke:none;" d="M352 388L353 389L352 388z"/>
<path style="fill:#9ca6a8; stroke:none;" d="M364 388L365 389L364 388z"/>
<path style="fill:#5a6669; stroke:none;" d="M365.667 388.333L366.333 388.667L365.667 388.333M398 388L397 390L398 388z"/>
<path style="fill:#ffffff; stroke:none;" d="M397 394L408 394C405.362 387.495 398.633 386.17 397 394z"/>
<path style="fill:#9ca6a8; stroke:none;" d="M405 388L406 389L405 388M411 388L412 389L411 388z"/>
<path style="fill:#5a6669; stroke:none;" d="M439 388L440 389L439 388z"/>
<path style="fill:#9ca6a8; stroke:none;" d="M440.667 388.333L441.333 388.667L440.667 388.333z"/>
<path style="fill:#5a6669; stroke:none;" d="M448 388L449 389L448 388M490.667 388.333L491.333 388.667L490.667 388.333z"/>
<path style="fill:#9ca6a8; stroke:none;" d="M521 388L522 389L521 388M528 388L529 389L528 388z"/>
<path style="fill:#5a6669; stroke:none;" d="M532 388L533 389L532 388M563 388L564 389L563 388z"/>
<path style="fill:#9ca6a8; stroke:none;" d="M569 388L570 389L569 388M576 388L577 389L576 388M278 389L277 391L278 389z"/>
<path style="fill:#5a6669; stroke:none;" d="M279 389L280 390L279 389z"/>
<path style="fill:#9ca6a8; stroke:none;" d="M285 389L286 390L285 389z"/>
<path style="fill:#5a6669; stroke:none;" d="M308 389L309 390L308 389z"/>
<path style="fill:#9ca6a8; stroke:none;" d="M322 389L323 390L322 389z"/>
<path style="fill:#5a6669; stroke:none;" d="M356 389L357 390L356 389M392 389L393 390L392 389z"/>
<path style="fill:#9ca6a8; stroke:none;" d="M406 389L407 390L406 389M438 389L439 390L438 389M449 389L450 390L449 389M455 389L456 390L455 389z"/>
<path style="fill:#5a6669; stroke:none;" d="M487 389L488 390L487 389z"/>
<path style="fill:#9ca6a8; stroke:none;" d="M488 389L489 390L488 389z"/>
<path style="fill:#5a6669; stroke:none;" d="M514 389L515 390L514 389z"/>
<path style="fill:#9ca6a8; stroke:none;" d="M520 389L521 390L520 389z"/>
<path style="fill:#5a6669; stroke:none;" d="M531 389L532 390L531 389M562 389L563 390L562 389z"/>
<path style="fill:#9ca6a8; stroke:none;" d="M570 389L571 390L570 389z"/>
<path style="fill:#5a6669; stroke:none;" d="M576 389L577 390L576 389M278 390L279 391L278 390M284 390L285 391L284 390z"/>
<path style="fill:#9ca6a8; stroke:none;" d="M313 390L314 391L313 390M328 390L329 391L328 390M397 390L398 391L397 390M412 390L413 391L412 390z"/>
<path style="fill:#5a6669; stroke:none;" d="M455.333 390.667L455.667 391.333L455.333 390.667M486 390L487 391L486 390z"/>
<path style="fill:#9ca6a8; stroke:none;" d="M519 390L520 391L519 390z"/>
<path style="fill:#5a6669; stroke:none;" d="M266 391L266 392L276 392L266 391z"/>
<path style="fill:#9ca6a8; stroke:none;" d="M284 391L285 392L284 391M307 391L308 392L307 391M323 391L324 392L323 391z"/>
<path style="fill:#5a6669; stroke:none;" d="M328 391L329 392L328 391M352 391L353 392L352 391M357 391L358 392L357 391z"/>
<path style="fill:#9ca6a8; stroke:none;" d="M358 391L359 392L358 391M391 391L392 392L391 391M407.333 391.667L407.667 392.333L407.333 391.667z"/>
<path style="fill:#5a6669; stroke:none;" d="M412 391L413 392L412 391z"/>
<path style="fill:#9ca6a8; stroke:none;" d="M450 391L448 393L448 394C450.251 393.527 451.118 393.14 450 391M513 391L514 392L513 391z"/>
<path style="fill:#5a6669; stroke:none;" d="M561 391L562 392L561 391z"/>
<path style="fill:#9ca6a8; stroke:none;" d="M571 391L571 407L572 407L571 391M283 392L284 393L283 392z"/>
<path style="fill:#5a6669; stroke:none;" d="M307.333 392.667L307.667 393.333L307.333 392.667z"/>
<path style="fill:#9ca6a8; stroke:none;" d="M312.333 392.667L312.667 393.333L312.333 392.667M352 392L353 393L352 392M360.667 392.333L361.333 392.667L360.667 392.333z"/>
<path style="fill:#5a6669; stroke:none;" d="M391.333 392.667L391.667 393.333L391.333 392.667z"/>
<path style="fill:#9ca6a8; stroke:none;" d="M396.333 392.667L396.667 393.333L396.333 392.667M485 392L486 393L485 392z"/>
<path style="fill:#5a6669; stroke:none;" d="M513.333 392.667L513.667 393.333L513.333 392.667M518 392L519 393L518 392z"/>
<path style="fill:#9ca6a8; stroke:none;" d="M561 392L561 407L562 407L561 392z"/>
<path style="fill:#5a6669; stroke:none;" d="M362 393L363 394L362 393z"/>
<path style="fill:#9ca6a8; stroke:none;" d="M363 393L364 394L363 393M439.667 393.333L440.333 393.667L439.667 393.333z"/>
<path style="fill:#5a6669; stroke:none;" d="M441 393L442 394L441 393M447 393L448 394L447 393M484.333 393.667L484.667 394.333L484.333 393.667z"/>
<path style="fill:#9ca6a8; stroke:none;" d="M518 393L518 397L519 397L518 393z"/>
<path style="fill:#5a6669; stroke:none;" d="M279 394L280 395L279 394z"/>
<path style="fill:#9ca6a8; stroke:none;" d="M280 394L281 395L280 394M353 394L354 395L353 394M365 394L366 395L365 394M437 394L436 396L437 394z"/>
<path style="fill:#5a6669; stroke:none;" d="M438 394L439 395L438 394z"/>
<path style="fill:#9ca6a8; stroke:none;" d="M329.333 395.667L329.667 396.333L329.333 395.667M355 395L356 396L355 395z"/>
<path style="fill:#5a6669; stroke:none;" d="M366 395L367 396L366 395z"/>
<path style="fill:#9ca6a8; stroke:none;" d="M413.333 395.667L413.667 396.333L413.333 395.667z"/>
<path style="fill:#5a6669; stroke:none;" d="M437 395L438 396L437 395z"/>
<path style="fill:#9ca6a8; stroke:none;" d="M484 395L484 407L485 407L484 395M266 396L266 407L267 407L266 396M273 396L274 397L273 396z"/>
<path style="fill:#5a6669; stroke:none;" d="M279 396L280 397L279 396z"/>
<path style="fill:#9ca6a8; stroke:none;" d="M357 396L358 397L357 396z"/>
<path style="fill:#5a6669; stroke:none;" d="M358 396L359 397L358 396M367 396L368 397L367 396M444 396L444 397L448 397L444 396M274 397L275 398L274 397z"/>
<path style="fill:#9ca6a8; stroke:none;" d="M280 397L281 398L280 397z"/>
<path style="fill:#5a6669; stroke:none;" d="M307.333 397.667L307.667 398.333L307.333 397.667M312.333 397.667L312.667 398.333L312.333 397.667z"/>
<path style="fill:#9ca6a8; stroke:none;" d="M313 397L313 398L329 398L313 397M360 397L361 398L360 397z"/>
<path style="fill:#5a6669; stroke:none;" d="M361 397L362 398L361 397z"/>
<path style="fill:#9ca6a8; stroke:none;" d="M368 397L369 398L368 397z"/>
<path style="fill:#5a6669; stroke:none;" d="M391.333 397.667L391.667 398.333L391.333 397.667M396 397L397 398L396 397z"/>
<path style="fill:#9ca6a8; stroke:none;" d="M397 397L397 398L413 398L397 397z"/>
<path style="fill:#5a6669; stroke:none;" d="M435 397L436 398L435 397z"/>
<path style="fill:#9ca6a8; stroke:none;" d="M441 397L440 399L441 397z"/>
<path style="fill:#ffffff; stroke:none;" d="M440 401C444.662 403.144 448.452 402.733 451 398C446.434 396.654 442.474 396.513 440 401z"/>
<path style="fill:#9ca6a8; stroke:none;" d="M450 397L451 398L450 397z"/>
<path style="fill:#5a6669; stroke:none;" d="M513 397L514 398L513 397M518 397L519 398L518 397z"/>
<path style="fill:#9ca6a8; stroke:none;" d="M274 398L275 399L274 398M362 398L363 399L362 398z"/>
<path style="fill:#5a6669; stroke:none;" d="M363 398L364 399L363 398M368 398L368 401L369 401L368 398z"/>
<path style="fill:#9ca6a8; stroke:none;" d="M396 398L397 399L396 398M513.333 398.667L513.667 399.333L513.333 398.667z"/>
<path style="fill:#5a6669; stroke:none;" d="M275 399L276 400L275 399M281 399L282 400L281 399z"/>
<path style="fill:#9ca6a8; stroke:none;" d="M307 399L308 400L307 399M391 399L392 400L391 399M434.333 399.667L434.667 400.333L434.333 399.667M519 399L520 400L519 399z"/>
<path style="fill:#5a6669; stroke:none;" d="M276 400L277 401L276 400z"/>
<path style="fill:#9ca6a8; stroke:none;" d="M282 400L283 401L282 400z"/>
<path style="fill:#5a6669; stroke:none;" d="M313 400L314 401L313 400z"/>
<path style="fill:#9ca6a8; stroke:none;" d="M324.667 400.333L325.333 400.667L324.667 400.333z"/>
<path style="fill:#5a6669; stroke:none;" d="M353 400L354 401L353 400z"/>
<path style="fill:#9ca6a8; stroke:none;" d="M354 400L355 401L354 400z"/>
<path style="fill:#5a6669; stroke:none;" d="M397 400L398 401L397 400z"/>
<path style="fill:#9ca6a8; stroke:none;" d="M408.667 400.333L409.333 400.667L408.667 400.333z"/>
<path style="fill:#5a6669; stroke:none;" d="M450 400L451 401L450 400M514 400L515 401L514 400z"/>
<path style="fill:#9ca6a8; stroke:none;" d="M520 400L521 401L520 400z"/>
<path style="fill:#5a6669; stroke:none;" d="M530 400L531 401L530 400z"/>
<path style="fill:#9ca6a8; stroke:none;" d="M532 400L533 401L532 400M276 401L277 402L276 401M308 401L309 402L308 401z"/>
<path style="fill:#5a6669; stroke:none;" d="M314 401L315 402L314 401z"/>
<path style="fill:#9ca6a8; stroke:none;" d="M323 401L324 402L323 401z"/>
<path style="fill:#5a6669; stroke:none;" d="M326 401L327 402L326 401M352 401L353 402L352 401M355 401L356 402L355 401z"/>
<path style="fill:#9ca6a8; stroke:none;" d="M363 401L364 402L363 401M368.333 401.667L368.667 402.333L368.333 401.667M392 401L393 402L392 401z"/>
<path style="fill:#5a6669; stroke:none;" d="M398 401L399 402L398 401z"/>
<path style="fill:#9ca6a8; stroke:none;" d="M407 401L408 402L407 401z"/>
<path style="fill:#5a6669; stroke:none;" d="M410 401L411 402L410 401z"/>
<path style="fill:#9ca6a8; stroke:none;" d="M440 401L441 402L440 401M449 401L450 402L449 401M521 401L522 402L521 401M528 401L529 402L528 401z"/>
<path style="fill:#5a6669; stroke:none;" d="M529 401L530 402L529 401z"/>
<path style="fill:#9ca6a8; stroke:none;" d="M533 401L534 402L533 401M277 402L278 403L277 402z"/>
<path style="fill:#5a6669; stroke:none;" d="M283 402L284 403L283 402M309 402L310 403L309 402M316 402L317 403L316 402z"/>
<path style="fill:#9ca6a8; stroke:none;" d="M317 402L317 403L322 403L317 402z"/>
<path style="fill:#5a6669; stroke:none;" d="M327 402L328 403L327 402z"/>
<path style="fill:#9ca6a8; stroke:none;" d="M351 402L352 403L351 402z"/>
<path style="fill:#5a6669; stroke:none;" d="M357 402L358 403L357 402z"/>
<path style="fill:#9ca6a8; stroke:none;" d="M358 402L358 403L361 403L358 402M362 402L363 403L362 402z"/>
<path style="fill:#5a6669; stroke:none;" d="M393 402L394 403L393 402z"/>
<path style="fill:#9ca6a8; stroke:none;" d="M400 402L400 403L405 403L400 402z"/>
<path style="fill:#5a6669; stroke:none;" d="M405 402L406 403L405 402M411 402L412 403L411 402M441 402L442 403L441 402z"/>
<path style="fill:#9ca6a8; stroke:none;" d="M442 402L443 403L442 402M446.667 402.333L447.333 402.667L446.667 402.333z"/>
<path style="fill:#5a6669; stroke:none;" d="M448 402L449 403L448 402M515 402L516 403L515 402M523 402L524 403L523 402z"/>
<path style="fill:#9ca6a8; stroke:none;" d="M524.667 402.333L525.333 402.667L524.667 402.333z"/>
<path style="fill:#5a6669; stroke:none;" d="M526 402L527 403L526 402M278 403L279 404L278 403z"/>
<path style="fill:#9ca6a8; stroke:none;" d="M284 403L285 404L284 403z"/>
<path style="fill:#5a6669; stroke:none;" d="M310 403L311 404L310 403z"/>
<path style="fill:#9ca6a8; stroke:none;" d="M327 403L328 404L327 403z"/>
<path style="fill:#5a6669; stroke:none;" d="M351 403L352 404L351 403M367 403L368 404L367 403M394 403L395 404L394 403z"/>
<path style="fill:#9ca6a8; stroke:none;" d="M411 403L412 404L411 403M435 403L436 404L435 403z"/>
<path style="fill:#5a6669; stroke:none;" d="M516 403L517 404L516 403M533 403L534 404L533 403z"/>
<path style="fill:#9ca6a8; stroke:none;" d="M285 404L286 405L285 404z"/>
<path style="fill:#5a6669; stroke:none;" d="M311 404L312 405L311 404z"/>
<path style="fill:#9ca6a8; stroke:none;" d="M326 404L327 405L326 404z"/>
<path style="fill:#5a6669; stroke:none;" d="M352 404L353 405L352 404M395 404L396 405L395 404z"/>
<path style="fill:#9ca6a8; stroke:none;" d="M410 404L411 405L410 404z"/>
<path style="fill:#5a6669; stroke:none;" d="M436 404L437 405L436 404M449 404L450 405L449 404z"/>
<path style="fill:#9ca6a8; stroke:none;" d="M450 404L450 407L451 407L450 404M517 404L518 405L517 404M532 404L533 405L532 404M279 405L280 406L279 405z"/>
<path style="fill:#5a6669; stroke:none;" d="M285 405L286 406L285 405z"/>
<path style="fill:#9ca6a8; stroke:none;" d="M312 405L313 406L312 405z"/>
<path style="fill:#5a6669; stroke:none;" d="M313 405L314 406L313 405M324 405L325 406L324 405z"/>
<path style="fill:#9ca6a8; stroke:none;" d="M353 405L354 406L353 405z"/>
<path style="fill:#5a6669; stroke:none;" d="M354 405L355 406L354 405M365 405L366 406L365 405z"/>
<path style="fill:#9ca6a8; stroke:none;" d="M396 405L397 406L396 405z"/>
<path style="fill:#5a6669; stroke:none;" d="M397 405L398 406L397 405M408 405L409 406L408 405z"/>
<path style="fill:#9ca6a8; stroke:none;" d="M437 405L438 406L437 405z"/>
<path style="fill:#5a6669; stroke:none;" d="M438 405L439 406L438 405z"/>
<path style="fill:#9ca6a8; stroke:none;" d="M448 405L449 406L448 405M518 405L519 406L518 405z"/>
<path style="fill:#5a6669; stroke:none;" d="M519 405L520 406L519 405M530 405L531 406L530 405z"/>
<path style="fill:#9ca6a8; stroke:none;" d="M531 405L532 406L531 405z"/>
<path style="fill:#5a6669; stroke:none;" d="M280 406L281 407L280 406M286 406L287 407L286 406z"/>
<path style="fill:#9ca6a8; stroke:none;" d="M315 406L316 407L315 406z"/>
<path style="fill:#5a6669; stroke:none;" d="M316.667 406.333L317.333 406.667L316.667 406.333M320.667 406.333L321.333 406.667L320.667 406.333z"/>
<path style="fill:#9ca6a8; stroke:none;" d="M322 406L323 407L322 406M356 406L357 407L356 406z"/>
<path style="fill:#5a6669; stroke:none;" d="M357.667 406.333L358.333 406.667L357.667 406.333M362.667 406.333L363.333 406.667L362.667 406.333z"/>
<path style="fill:#9ca6a8; stroke:none;" d="M364 406L365 407L364 406M399 406L400 407L399 406z"/>
<path style="fill:#5a6669; stroke:none;" d="M400 406L401 407L400 406M404.667 406.333L405.333 406.667L404.667 406.333z"/>
<path style="fill:#9ca6a8; stroke:none;" d="M406 406L407 407L406 406M439 406L440 407L439 406z"/>
<path style="fill:#5a6669; stroke:none;" d="M440 406L441 407L440 406M445 406L446 407L445 406z"/>
<path style="fill:#9ca6a8; stroke:none;" d="M446 406L447 407L446 406M520.667 406.333L521.333 406.667L520.667 406.333z"/>
<path style="fill:#5a6669; stroke:none;" d="M522 406L523 407L522 406M527 406L528 407L527 406z"/>
<path style="fill:#9ca6a8; stroke:none;" d="M528 406L529 407L528 406z"/>
</svg>
